<svg width="34" height="35" viewBox="0 0 34 35" fill="none" xmlns="http://www.w3.org/2000/svg">
<path d="M27.8401 30.0292V27.2449C27.8401 25.7681 27.2535 24.3517 26.2091 23.3074C25.1648 22.2631 23.7485 21.6764 22.2716 21.6764H20.8794C20.5102 21.6764 20.1561 21.5297 19.8951 21.2686C19.634 21.0075 19.4873 20.6535 19.4873 20.2842V13.3235C19.4873 12.5851 19.194 11.8769 18.6718 11.3548C18.1497 10.8326 17.4415 10.5393 16.703 10.5393C15.9646 10.5393 15.2564 10.8326 14.7342 11.3548C14.2121 11.8769 13.9188 12.5851 13.9188 13.3235V25.8528L10.5776 21.3979C10.3183 21.0521 9.98198 20.7715 9.59536 20.5782C9.20875 20.3849 8.78244 20.2842 8.3502 20.2842H7.74601C6.54181 20.2842 5.56592 21.2601 5.56592 22.4643C5.56592 22.8597 5.67311 23.2481 5.87637 23.5864L9.74233 30.0292M16.703 6.36284V4.9707V6.36284ZM25.0559 14.7157H26.448H25.0559ZM6.95806 14.7157H8.3502H6.95806ZM10.2198 8.23248L9.2356 7.24824L10.2198 8.23248ZM23.1862 8.23248L24.1705 7.24824L23.1862 8.23248Z" fill="#FF735C"/>
<path d="M27.8401 30.0292V27.2449C27.8401 25.7681 27.2535 24.3517 26.2091 23.3074C25.1648 22.2631 23.7485 21.6764 22.2716 21.6764H20.8794C20.5102 21.6764 20.1561 21.5297 19.8951 21.2686C19.634 21.0075 19.4873 20.6534 19.4873 20.2842V13.3235C19.4873 12.5851 19.194 11.8769 18.6718 11.3548C18.1497 10.8326 17.4415 10.5393 16.703 10.5393V10.5393C15.9646 10.5393 15.2564 10.8326 14.7342 11.3548C14.2121 11.8769 13.9188 12.5851 13.9188 13.3235V25.8528L10.5776 21.3979C10.3183 21.0521 9.98198 20.7715 9.59536 20.5782C9.20875 20.3849 8.78244 20.2842 8.3502 20.2842H7.74601C6.54181 20.2842 5.56592 21.2601 5.56592 22.4643C5.56592 22.8597 5.67311 23.2481 5.87637 23.5864L9.74233 30.0292M16.703 6.36284V4.9707M25.0559 14.7157H26.448M6.95806 14.7157H8.3502M10.2198 8.23248L9.2356 7.24824M23.1862 8.23248L24.1705 7.24824" stroke="#FF735C" stroke-width="1.39214" stroke-linecap="round" stroke-linejoin="round"/>
</svg>
