<svg width="34" height="35" viewBox="0 0 34 35" fill="none" xmlns="http://www.w3.org/2000/svg">
<g clip-path="url(#clip0_21_575)">
<path d="M32.2211 27.5506L32.2211 27.5506C32.3523 27.4596 32.4642 27.3434 32.5501 27.2088C32.6361 27.0742 32.6944 26.9238 32.7217 26.7665C32.7491 26.6091 32.7448 26.4479 32.7093 26.2922C32.6738 26.1365 32.6076 25.9894 32.5148 25.8595L32.5132 25.8573C31.2061 23.9994 29.4252 22.5255 27.3556 21.5889L26.8509 21.3605L27.2757 21.0049C28.5355 19.9505 29.4397 18.5333 29.8652 16.9465C30.2907 15.3597 30.2168 13.6803 29.6536 12.137C29.0904 10.5937 28.0653 9.26141 26.7177 8.32162C25.3702 7.38182 23.7658 6.88016 22.1229 6.88493L22.1213 6.88494C21.3902 6.88372 20.6625 6.98467 19.9593 7.18487L19.9531 7.18664L19.9531 7.18659C19.7969 7.22792 19.6505 7.29991 19.5224 7.39836L19.3103 7.12242L19.5224 7.39836C19.3943 7.49682 19.2871 7.61977 19.2069 7.76007C19.1268 7.90037 19.0754 8.05521 19.0557 8.21556C19.036 8.37592 19.0484 8.53859 19.0921 8.69412C19.1359 8.84964 19.2101 8.99491 19.3106 9.12146C19.411 9.24801 19.5356 9.35331 19.6772 9.43123L19.5093 9.73611L19.6772 9.43123C19.8187 9.50916 19.9743 9.55815 20.135 9.57536C20.2956 9.59257 20.4581 9.57765 20.6129 9.53147L20.6169 9.53028L20.6169 9.5303C21.1066 9.39061 21.6134 9.32022 22.1226 9.32118M32.2211 27.5506L22.1219 9.66921M32.2211 27.5506L32.217 27.5535C32.0138 27.6987 31.7702 27.7764 31.5205 27.7757M32.2211 27.5506L27.8448 21.4344M22.1226 9.32118L22.1219 9.66921M22.1226 9.32118C22.1224 9.32118 22.1221 9.32118 22.1219 9.32118V9.66921M22.1226 9.32118C23.5992 9.32135 25.0153 9.90802 26.0595 10.9522C27.1038 11.9965 27.6905 13.4129 27.6905 14.8897C27.6905 16.3666 27.1038 17.783 26.0595 18.8273C25.0152 19.8716 23.5988 20.4583 22.1219 20.4583C21.7989 20.4583 21.489 20.5866 21.2606 20.8151C21.0321 21.0435 20.9038 21.3533 20.9038 21.6764C20.9038 21.9995 21.0321 22.3093 21.2606 22.5378C21.489 22.7662 21.7989 22.8945 22.1219 22.8945H22.1223C23.7697 22.8963 25.3927 23.2935 26.8547 24.0528C28.3166 24.812 29.575 25.9109 30.5241 27.2574M22.1219 9.66921C23.5065 9.66921 24.8343 10.2192 25.8134 11.1983C26.7924 12.1773 27.3424 13.5052 27.3424 14.8897C27.3424 16.2743 26.7924 17.6022 25.8134 18.5812C24.8343 19.5602 23.5065 20.1103 22.1219 20.1103C21.7065 20.1103 21.3082 20.2753 21.0145 20.569C20.7208 20.8627 20.5558 21.261 20.5558 21.6764C20.5558 22.0918 20.7208 22.4901 21.0145 22.7839C21.3082 23.0776 21.7065 23.2426 22.1219 23.2426C23.7136 23.2443 25.2817 23.6281 26.6943 24.3616C28.1069 25.0952 29.3228 26.1571 30.2398 27.4581M30.5241 27.2574C30.524 27.2572 30.5238 27.257 30.5237 27.2568L30.2398 27.4581M30.5241 27.2574C30.6371 27.4165 30.7864 27.5466 30.9596 27.6367C31.1329 27.7269 31.3251 27.7745 31.5205 27.7757M30.5241 27.2574L31.5205 27.7757M30.2398 27.4581C30.3849 27.6627 30.5765 27.8297 30.7989 27.9454C31.0214 28.0612 31.2681 28.1223 31.5189 28.1238M30.2398 27.4581L31.5205 27.7757M27.7857 21.0205C28.9511 19.9508 29.7903 18.5696 30.2013 17.0367C30.6454 15.3807 30.5683 13.6282 29.9806 12.0177C29.3928 10.4071 28.323 9.01687 26.9168 8.03615C25.5106 7.05543 23.8363 6.53192 22.1219 6.5369C21.3584 6.53563 20.5984 6.64106 19.864 6.85013L27.7857 21.0205ZM27.7857 21.0205C27.7381 20.9983 27.6904 20.9764 27.6425 20.9547L27.4991 21.2718M27.7857 21.0205L27.4991 21.2718M27.4991 21.2718L27.7224 21.5387C27.7636 21.5043 27.8043 21.4695 27.8448 21.4344M27.4991 21.2718L27.8448 21.4344M27.8448 21.4344C29.8237 22.4006 31.5284 23.8525 32.7979 25.6571C32.9176 25.8245 33.0028 26.0141 33.0486 26.2148C33.0944 26.4154 33.0999 26.6232 33.0646 26.826C33.0294 27.0288 32.9543 27.2226 32.8435 27.3961C32.7327 27.5696 32.5886 27.7193 32.4194 27.8366C32.1567 28.0244 31.8417 28.1248 31.5189 28.1238M31.5189 28.1238L31.5209 27.7757C31.5207 27.7757 31.5206 27.7757 31.5205 27.7757M31.5189 28.1238L31.52 27.7757C31.5201 27.7757 31.5203 27.7757 31.5205 27.7757M16.6382 21.0055L16.2154 21.3611L16.7188 21.5889C18.7884 22.5255 20.5693 23.9994 21.8764 25.8573L21.8814 25.8644L21.8867 25.8712C21.9883 26.0013 22.0623 26.1507 22.1044 26.3102C22.1464 26.4698 22.1556 26.6363 22.1314 26.7995C22.1072 26.9627 22.0501 27.1193 21.9635 27.2598C21.8769 27.4003 21.7627 27.5217 21.6278 27.6167C21.4928 27.7117 21.34 27.7783 21.1786 27.8125C21.0171 27.8466 20.8504 27.8476 20.6886 27.8154C20.5267 27.7832 20.3731 27.7184 20.2371 27.625C20.101 27.5316 19.9854 27.4115 19.8971 27.272L19.8927 27.265L19.8879 27.2582C18.9407 25.9091 17.6827 24.808 16.2201 24.0478C14.7575 23.2876 13.1334 22.8908 11.4851 22.8908C9.83678 22.8908 8.21269 23.2876 6.75012 24.0478C5.28756 24.808 4.02952 25.9091 3.08236 27.2581L3.08158 27.2593C2.97024 27.4192 2.82178 27.5497 2.64894 27.6396C2.47609 27.7296 2.28402 27.7763 2.08917 27.7757L2.08704 27.7757C1.83714 27.7765 1.59331 27.6988 1.39001 27.5535L1.38834 27.5523C1.12482 27.3663 0.945847 27.0833 0.890661 26.7656C0.835491 26.4478 0.908542 26.1212 1.09379 25.8573C2.40089 23.9994 4.18184 22.5255 6.25146 21.5889L6.75477 21.3611L6.33202 21.0055C5.07559 19.9485 4.17457 18.5308 3.75112 16.9444C3.32766 15.3581 3.40225 13.6799 3.96478 12.1374C4.52731 10.5949 5.55056 9.26267 6.8958 8.32134C8.24105 7.38002 9.84322 6.87513 11.4851 6.87513C13.127 6.87513 14.7292 7.38002 16.0744 8.32134C17.4197 9.26267 18.4429 10.5949 19.0054 12.1374C19.568 13.6799 19.6426 15.3581 19.2191 16.9444C18.7956 18.5308 17.8946 19.9485 16.6382 21.0055ZM6.85502 11.796C6.24314 12.7118 5.91655 13.7884 5.91655 14.8897C5.91655 16.3666 6.50324 17.783 7.54754 18.8273C8.59185 19.8716 10.0082 20.4583 11.4851 20.4583C12.5865 20.4583 13.6631 20.1317 14.5788 19.5198C15.4946 18.9079 16.2083 18.0382 16.6298 17.0207C17.0513 16.0032 17.1615 14.8836 16.9467 13.8034C16.7318 12.7232 16.2014 11.7309 15.4227 10.9522C14.6439 10.1734 13.6517 9.64304 12.5715 9.42818C11.4913 9.21331 10.3716 9.32359 9.35411 9.74506C8.33659 10.1665 7.4669 10.8803 6.85502 11.796Z" fill="#FF735C" stroke="#FF735C" stroke-width="0.696069"/>
</g>
<defs>
<clipPath id="clip0_21_575">
<rect width="33.4113" height="33.4113" fill="white" transform="translate(0 0.794312)"/>
</clipPath>
</defs>
</svg>
