<svg width="46" height="40" viewBox="0 0 46 40" fill="none" xmlns="http://www.w3.org/2000/svg">
<path d="M45.8562 26.5073C45.8562 33.427 40.2467 39.0365 33.3269 39.0365L14.5331 39.0365C12.6109 39.0365 11.0527 37.4783 11.0527 35.5562L11.0527 11.8898C11.0527 8.04553 14.1691 4.92912 18.0134 4.92912L42.3759 4.92913C44.298 4.92913 45.8562 6.48733 45.8562 8.40947L45.8562 26.5073Z" fill="#E58A7B" fill-opacity="0.39"/>
<path d="M17.3104 7.01735C14.8246 7.01735 12.8009 9.05954 12.8009 11.556C12.8009 13.1352 13.6118 14.5297 14.8364 15.3424C13.3574 15.837 12.0776 16.7613 11.1389 17.9705C10.6199 17.5713 10.04 17.2503 9.41492 17.0202C10.3629 16.3165 10.9823 15.186 10.9823 13.9154C10.9823 11.7981 9.26995 10.0649 7.16551 10.0649C5.06108 10.0649 3.34869 11.7981 3.34869 13.9154C3.34869 15.1867 3.96868 16.3177 4.91743 17.0215C2.40561 17.9484 0.611694 20.3751 0.611694 23.2311V25.2373C0.611951 25.3902 0.673127 25.5367 0.781597 25.6444C0.890066 25.7524 1.03684 25.8125 1.18978 25.812H9.99155C10.0129 25.8143 10.0342 25.8156 10.0556 25.8154H24.5657C24.587 25.8156 24.6086 25.8143 24.6297 25.812H33.4322C33.7486 25.8107 34.0048 25.5539 34.0056 25.2373V23.2311C34.0056 20.3751 32.2148 17.9484 29.7043 17.0212C30.653 16.3177 31.273 15.1864 31.273 13.9151C31.273 11.7979 29.5606 10.0646 27.4562 10.0646C25.3518 10.0646 23.6394 11.7979 23.6394 13.9151C23.6394 15.1857 24.2591 16.3164 25.2071 17.02C24.5807 17.2505 24.0005 17.5726 23.4808 17.9728C22.5426 16.7629 21.2646 15.8373 19.7856 15.3424C21.0098 14.5297 21.8211 13.1352 21.8211 11.556C21.8211 9.05954 19.7964 7.01735 17.3105 7.01735H17.3104ZM17.3104 8.1689C19.1696 8.1689 20.6684 9.67775 20.6684 11.556C20.6684 13.4195 19.1929 14.9137 17.3543 14.9376C17.3397 14.9376 17.3253 14.9356 17.3104 14.9356C17.2955 14.9356 17.2813 14.9376 17.2664 14.9376C15.4278 14.914 13.9534 13.4196 13.9534 11.556C13.9534 9.67749 15.4509 8.1689 17.3101 8.1689H17.3104ZM7.16558 11.2164C8.64075 11.2164 9.83085 12.4136 9.83085 13.9153C9.83085 15.4069 8.65614 16.5991 7.19486 16.6153C7.18509 16.6153 7.17558 16.6142 7.16556 16.6142C7.15579 16.6142 7.14628 16.6153 7.13626 16.6153C5.67498 16.5991 4.50027 15.4067 4.50027 13.9153C4.50027 12.4137 5.69037 11.2164 7.16554 11.2164H7.16558ZM27.4559 11.2164C28.931 11.2164 30.1211 12.4136 30.1211 13.9153C30.1211 15.4069 28.9464 16.5991 27.4851 16.6153C27.4754 16.6153 27.4659 16.6142 27.4558 16.6142C27.4461 16.6142 27.4366 16.6153 27.4265 16.6153C25.9652 16.5991 24.7905 15.4067 24.7905 13.9153C24.7905 12.4137 25.9806 11.2164 27.4558 11.2164H27.4559ZM17.2663 16.0891C17.281 16.0894 17.2953 16.0912 17.3103 16.0912C17.3249 16.0912 17.3393 16.0891 17.3542 16.0891C21.0415 16.1128 23.9924 19.0891 23.9924 22.8148L23.9921 24.6635H10.6289V22.8148C10.6289 19.0887 13.579 16.1128 17.2658 16.0891H17.2663ZM7.12149 17.7681C7.13614 17.7684 7.15054 17.7702 7.16545 17.7702C7.18036 17.7702 7.19449 17.7681 7.2094 17.7681C8.45656 17.7782 9.59475 18.2082 10.5011 18.9276C9.85253 20.0751 9.47749 21.3996 9.47749 22.8151V24.6594H1.76278V23.231C1.76278 20.203 4.14352 17.7918 7.12136 17.7679L7.12149 17.7681ZM27.4118 17.7681C27.4267 17.7684 27.4408 17.7702 27.4557 17.7702C27.4706 17.7702 27.4848 17.7681 27.4997 17.7681C30.4775 17.7918 32.8583 20.2034 32.8583 23.2313V24.6594H25.1396L25.1393 22.8151C25.1393 21.4004 24.7653 20.0769 24.1181 18.9297C25.0246 18.2092 26.1636 17.7781 27.4118 17.7681H27.4118Z" fill="#103E13"/>
</svg>
