<svg width="46" height="40" viewBox="0 0 46 40" fill="none" xmlns="http://www.w3.org/2000/svg">
<path d="M45.7282 26.5073C45.7281 33.427 40.1186 39.0365 33.1989 39.0365L14.405 39.0365C12.4829 39.0365 10.9247 37.4783 10.9247 35.5562L10.9247 11.8898C10.9247 8.04553 14.0411 4.92912 17.8854 4.92912L42.2478 4.92913C44.1699 4.92913 45.7282 6.48733 45.7282 8.40947L45.7282 26.5073Z" fill="#E58A7B" fill-opacity="0.39"/>
<path d="M23.607 18.9744C23.399 18.9744 23.2058 18.9172 23.0342 18.8251V18.8276C23.0342 19.1549 22.907 19.4623 22.6761 19.6925C22.4453 19.9234 22.1382 20.0506 21.8112 20.0506C21.6001 20.0506 21.4045 19.992 21.2311 19.8975C21.2136 20.1969 21.0939 20.4768 20.8803 20.6906C20.6495 20.9214 20.3423 21.0486 20.0152 21.0486C19.3652 21.0486 18.8374 20.5377 18.7993 19.8973C18.5982 20.006 18.3708 20.063 18.1363 20.0479C17.4969 20.006 16.9962 19.4536 16.9962 18.7899V13.2891L16.3698 14.3743C16.1312 14.7893 15.6847 15.047 15.2038 15.047C14.9695 15.047 14.7381 14.9855 14.5331 14.8681C14.2779 14.7201 14.0953 14.4825 14.0193 14.1984C13.943 13.914 13.9825 13.6166 14.1301 13.3617C14.1303 13.3617 16.1795 9.81306 16.3045 9.59508C16.3194 9.56231 16.3617 9.46725 16.3977 9.38623C16.4321 9.30888 16.4617 9.2295 16.4899 9.1497C17.1079 7.40502 18.6381 6.32127 20.4836 6.32127C22.88 6.32127 24.8297 8.43541 24.8297 11.0341L24.8299 17.7512C24.8299 18.0781 24.7029 18.3853 24.4723 18.6163C24.2414 18.8472 23.9343 18.9744 23.607 18.9744L23.607 18.9744ZM20.4836 6.97113C18.8979 6.97113 17.634 7.86681 17.1025 9.36703C17.0685 9.4623 17.0331 9.55756 16.9917 9.65039C16.8718 9.91929 16.8718 9.91929 16.8381 9.95796L16.8336 9.95409C16.6663 10.2698 16.1692 11.1307 14.6928 13.687C14.6321 13.7918 14.616 13.9135 14.647 14.0299C14.6783 14.1464 14.7534 14.2445 14.8574 14.3045C15.1803 14.49 15.6224 14.3703 15.8064 14.0497L17.0398 11.9143C17.1135 11.7871 17.2625 11.7246 17.4054 11.7633C17.5475 11.8014 17.6462 11.9302 17.6462 12.0772V18.7901C17.6462 19.1069 17.8852 19.3802 18.1789 19.3996C18.3483 19.4085 18.5062 19.3517 18.6249 19.2332C18.7328 19.1254 18.7922 18.9817 18.7922 18.828V14.4376C18.7922 14.2581 18.9378 14.1125 19.1173 14.1125C19.2969 14.1125 19.4424 14.2579 19.4424 14.4376L19.4422 19.8259C19.4422 20.1418 19.6993 20.3989 20.0152 20.3989C20.1687 20.3989 20.3128 20.3395 20.4209 20.2316C20.5288 20.1235 20.5882 19.9794 20.5882 19.8259V14.4376C20.5882 14.2581 20.7336 14.1125 20.9133 14.1125C21.0929 14.1125 21.2384 14.2579 21.2384 14.4376L21.2382 18.7775V18.8279C21.2382 19.1437 21.4953 19.4007 21.8114 19.4007C21.9647 19.4007 22.1084 19.3411 22.2171 19.2328C22.325 19.1251 22.3844 18.9814 22.3844 18.8277V14.4374C22.3844 14.2579 22.5298 14.1123 22.7095 14.1123C22.8891 14.1123 23.0346 14.2576 23.0346 14.4374L23.0342 17.7513C23.0342 18.0675 23.2913 18.3245 23.607 18.3245C23.7607 18.3245 23.9044 18.2649 24.0123 18.1572C24.1206 18.0489 24.1798 17.9048 24.1798 17.7513L24.18 11.0342C24.18 8.79409 22.5218 6.9712 20.4836 6.9712L20.4836 6.97113Z" fill="#103E13"/>
<path d="M10.8347 23.6429L15.552 20.8131C16.1207 20.4715 16.8525 20.6166 17.2173 21.1436C17.3504 21.3356 17.4184 21.5593 17.429 21.7871C17.6049 21.6953 17.7962 21.6454 17.991 21.6454C18.0907 21.6454 18.1909 21.6578 18.2898 21.6825C18.6068 21.7617 18.8738 21.9597 19.0418 22.2398C19.2099 22.5203 19.259 22.849 19.1798 23.1656C19.1067 23.4585 18.9286 23.7051 18.6809 23.8742C18.8541 23.9764 19.0035 24.1158 19.1098 24.2933C19.2779 24.5738 19.327 24.9024 19.248 25.2193C19.1688 25.5359 18.9707 25.8029 18.6902 25.9713L18.6886 25.9723C18.8588 26.0743 19.0056 26.2123 19.1106 26.3872C19.2789 26.6677 19.328 26.9964 19.2488 27.3133C19.1694 27.6301 18.9714 27.8971 18.6913 28.0653L12.9315 31.5207C11.8565 32.1654 10.6137 32.3879 9.43268 32.1467C8.24106 31.9032 7.25418 31.2183 6.65412 30.218C5.70451 28.6353 5.84682 26.7654 7.0248 25.3382C7.07875 25.2731 7.13188 25.2067 7.18012 25.1379C7.23121 25.0653 7.29086 24.9798 7.31121 24.9505C7.43314 24.7326 9.42274 21.148 9.42254 21.1484C9.62345 20.7859 10 20.5806 10.3884 20.5808C10.5696 20.5808 10.7534 20.6254 10.923 20.7195C11.1277 20.8339 11.2998 21.0006 11.4201 21.2015C11.6674 21.6137 11.6761 22.1295 11.4433 22.547L10.8347 23.6429ZM10.863 21.5357C10.7999 21.4304 10.7132 21.3466 10.6072 21.2871C10.3879 21.1658 10.1119 21.2448 9.99121 21.4632C8.56754 24.0281 8.08223 24.9021 7.89494 25.2132L7.89922 25.2142C7.88354 25.2663 7.88354 25.2663 7.71215 25.5112C7.65393 25.594 7.59063 25.6736 7.5261 25.752C6.51317 26.9793 6.39555 28.5237 7.21119 29.8836C7.71642 30.7259 8.55143 31.3034 9.56249 31.5098C10.5845 31.7177 11.6618 31.5243 12.5967 30.9633L18.3571 27.5077C18.4886 27.4289 18.5814 27.3037 18.6185 27.1553C18.6555 27.0072 18.6325 26.8531 18.5535 26.7216C18.3911 26.4508 18.0383 26.3619 17.7676 26.5249L14.9259 28.2297C14.772 28.3222 14.5721 28.2725 14.4799 28.1184C14.3875 27.9645 14.4374 27.7648 14.5913 27.6724L17.4331 25.9676L18.3561 25.4139C18.4876 25.3349 18.5806 25.2097 18.6176 25.0618C18.6547 24.9134 18.6317 24.7591 18.5527 24.6278C18.3901 24.3568 18.0373 24.2687 17.7668 24.4311L14.002 26.6896C13.8477 26.7822 13.6484 26.7322 13.556 26.5783C13.4636 26.4244 13.5136 26.2247 13.6673 26.1323L18.2879 23.3605C18.4194 23.2815 18.5122 23.1565 18.5493 23.0081C18.5863 22.8599 18.5633 22.7058 18.4845 22.5743C18.4057 22.443 18.2806 22.3502 18.1322 22.3131C17.983 22.2761 17.8295 22.2991 17.6984 22.3777L16.843 22.8908C16.8428 22.8908 16.8428 22.8911 16.8426 22.8911H16.8424L13.0778 25.1495C12.9235 25.2424 12.724 25.1923 12.6318 25.0382C12.5394 24.8843 12.5895 24.6846 12.7432 24.5922L16.508 22.3337C16.6395 22.2547 16.7325 22.1295 16.7696 21.9816C16.8103 21.8191 16.7793 21.653 16.6828 21.5138C16.5155 21.2717 16.1577 21.2074 15.8863 21.3705L10.1302 24.8237C10.0041 24.899 9.84273 24.8807 9.73708 24.7787C9.63123 24.6765 9.60741 24.5159 9.67866 24.3874L10.8756 22.2309C10.9957 22.0154 10.991 21.7491 10.863 21.5358L10.863 21.5357Z" fill="#103E13"/>
<path d="M33.3759 30.2177C32.776 31.2182 31.7894 31.903 30.5976 32.1465C29.4163 32.3873 28.174 32.1652 27.0988 31.5205L21.3385 28.0649C21.0582 27.8968 20.8599 27.6297 20.7805 27.3125C20.7017 26.996 20.751 26.6673 20.9189 26.3872C21.0238 26.2121 21.1707 26.0741 21.3411 25.9721L21.3395 25.9711C21.0592 25.8029 20.8609 25.5359 20.782 25.2191C20.7026 24.9024 20.7518 24.5734 20.92 24.293C21.0283 24.1128 21.1767 23.9719 21.346 23.872C21.1001 23.7028 20.923 23.4572 20.8502 23.1656C20.7708 22.8487 20.82 22.5199 20.9882 22.2398C21.1561 21.9595 21.4234 21.7615 21.7401 21.6823C21.8391 21.6575 21.9394 21.6453 22.0387 21.6453C22.2338 21.6455 22.4251 21.6949 22.601 21.7869C22.6118 21.5592 22.6795 21.3354 22.8127 21.1435C23.1777 20.6169 23.9088 20.4711 24.4784 20.8129L29.1955 23.6424L28.5874 22.5472C28.3542 22.1291 28.3627 21.6133 28.61 21.2009C28.7305 21.0001 28.9028 20.8334 29.1086 20.718C29.2777 20.6244 29.4609 20.58 29.6416 20.58C30.0298 20.5802 30.4068 20.785 30.6075 21.1475C31.307 22.4078 32.6268 24.7845 32.7196 24.9504C32.7394 24.9791 32.799 25.0646 32.8501 25.1373C32.8988 25.2063 32.9513 25.2723 33.0056 25.3378C34.1834 26.7655 34.3255 28.6352 33.3759 30.2177L33.3759 30.2177ZM32.5041 25.7521C32.4394 25.6737 32.3759 25.5937 32.3181 25.5113C32.1422 25.2617 32.1377 25.2552 32.1245 25.1899C31.9189 24.8497 31.4173 23.9467 30.0386 21.4629C29.9177 21.2449 29.6429 21.1653 29.4241 21.2862C29.3164 21.3464 29.2299 21.4305 29.1668 21.5358C29.039 21.7489 29.0341 22.0151 29.1548 22.2313L30.3513 24.3872C30.4228 24.5159 30.3989 24.6763 30.2933 24.7785C30.1879 24.8808 30.0266 24.8988 29.9 24.8234L24.1439 21.3703C23.8725 21.2076 23.5149 21.2713 23.3471 21.5136C23.2506 21.6528 23.2199 21.8189 23.2602 21.9811C23.2973 22.1293 23.3903 22.2543 23.522 22.3333C23.5224 22.3335 23.5226 22.3339 23.523 22.3341L27.2866 24.592C27.4405 24.6844 27.4904 24.8839 27.398 25.038C27.3055 25.1917 27.1062 25.2419 26.952 25.1493L22.3314 22.3775C22.2003 22.2989 22.046 22.2757 21.8978 22.313C21.7492 22.35 21.6242 22.4428 21.5454 22.5745C21.4665 22.7058 21.4437 22.8599 21.4803 23.0081C21.5174 23.1563 21.6104 23.2815 21.7419 23.3605L22.641 23.8997L26.3622 26.1323C26.5161 26.2248 26.566 26.4242 26.4736 26.5783C26.3812 26.732 26.1819 26.7821 26.0276 26.6897L22.2632 24.4312C21.9925 24.2683 21.6399 24.3567 21.4771 24.6278C21.3981 24.7593 21.3753 24.9134 21.4119 25.0616C21.449 25.2098 21.542 25.3348 21.6737 25.414L22.5966 25.9677L25.4381 27.6725C25.592 27.7649 25.6418 27.9644 25.5494 28.1185C25.457 28.2721 25.2577 28.3226 25.1034 28.2298L22.262 26.525C22.1309 26.4464 21.9772 26.4232 21.8282 26.4605C21.68 26.4975 21.5546 26.5903 21.4758 26.7216C21.3971 26.8531 21.3741 27.0074 21.4107 27.1554C21.4477 27.3036 21.5408 27.4286 21.6725 27.5078L27.4328 30.9633C28.3676 31.5242 29.4456 31.7183 30.4671 31.5099C31.4779 31.3035 32.3129 30.726 32.8182 29.8837C33.6346 28.5235 33.5172 26.9789 32.5045 25.752L32.5041 25.7521Z" fill="#103E13"/>
</svg>
