<svg width="46" height="39" viewBox="0 0 46 39" fill="none" xmlns="http://www.w3.org/2000/svg">
<path d="M45.7922 26.4588C45.7922 33.3786 40.1827 38.9881 33.263 38.9881L14.4691 38.9881C12.547 38.9881 10.9888 37.4299 10.9888 35.5077L10.9888 11.8414C10.9888 7.99708 14.1052 4.88068 17.9495 4.88068L42.3119 4.88068C44.234 4.88068 45.7922 6.43888 45.7922 8.36103L45.7922 26.4588Z" fill="#E58A7B" fill-opacity="0.39"/>
<path d="M19.2834 13.2411C19.0662 13.2411 18.8896 13.0648 18.8896 12.8473V12.1782C18.8896 11.961 19.0659 11.7844 19.2834 11.7844C19.5006 11.7844 19.6771 11.9607 19.6771 12.1782V12.8473C19.6771 13.0648 19.5006 13.2411 19.2834 13.2411Z" fill="#103E13"/>
<path d="M17.6279 13.2411C17.4107 13.2411 17.2341 13.0648 17.2341 12.8473V12.1782C17.2341 11.961 17.4104 11.7844 17.6279 11.7844C17.8451 11.7844 18.0216 11.9607 18.0216 12.1782V12.8473C18.0214 13.0648 17.8453 13.2411 17.6279 13.2411Z" fill="#103E13"/>
<path d="M15.9726 13.2411C15.7554 13.2411 15.5789 13.0648 15.5789 12.8473V12.1782C15.5789 11.961 15.7551 11.7844 15.9726 11.7844C16.1898 11.7844 16.3664 11.9607 16.3664 12.1782V12.8473C16.3664 13.0648 16.1901 13.2411 15.9726 13.2411Z" fill="#103E13"/>
<path d="M19.2834 15.9774C19.0662 15.9774 18.8896 15.8011 18.8896 15.5837V14.9148C18.8896 14.6976 19.0659 14.5211 19.2834 14.5211C19.5006 14.5211 19.6771 14.6973 19.6771 14.9148V15.5837C19.6771 15.8011 19.5006 15.9774 19.2834 15.9774Z" fill="#103E13"/>
<path d="M17.6279 15.9774C17.4107 15.9774 17.2341 15.8011 17.2341 15.5837V14.9148C17.2341 14.6976 17.4104 14.5211 17.6279 14.5211C17.8451 14.5211 18.0216 14.6973 18.0216 14.9148V15.5837C18.0214 15.8011 17.8453 15.9774 17.6279 15.9774Z" fill="#103E13"/>
<path d="M15.9726 15.9774C15.7554 15.9774 15.5789 15.8011 15.5789 15.5837V14.9148C15.5789 14.6976 15.7551 14.5211 15.9726 14.5211C16.1898 14.5211 16.3664 14.6973 16.3664 14.9148V15.5837C16.3664 15.8011 16.1901 15.9774 15.9726 15.9774Z" fill="#103E13"/>
<path d="M19.2834 18.7139C19.0662 18.7139 18.8896 18.5376 18.8896 18.3201V17.651C18.8896 17.4338 19.0659 17.2572 19.2834 17.2572C19.5006 17.2572 19.6771 17.4335 19.6771 17.651V18.3201C19.6771 18.5376 19.5006 18.7139 19.2834 18.7139Z" fill="#103E13"/>
<path d="M17.6279 18.7139C17.4107 18.7139 17.2341 18.5376 17.2341 18.3201V17.651C17.2341 17.4338 17.4104 17.2572 17.6279 17.2572C17.8451 17.2572 18.0216 17.4335 18.0216 17.651V18.3201C18.0214 18.5376 17.8453 18.7139 17.6279 18.7139Z" fill="#103E13"/>
<path d="M15.9726 18.7139C15.7554 18.7139 15.5789 18.5376 15.5789 18.3201V17.651C15.5789 17.4338 15.7551 17.2572 15.9726 17.2572C16.1898 17.2572 16.3664 17.4335 16.3664 17.651V18.3201C16.3664 18.5376 16.1901 18.7139 15.9726 18.7139Z" fill="#103E13"/>
<path d="M19.2834 21.4497C19.0662 21.4497 18.8896 21.2735 18.8896 21.056V20.3868C18.8896 20.1696 19.0659 19.9931 19.2834 19.9931C19.5006 19.9931 19.6771 20.1694 19.6771 20.3868V21.056C19.6771 21.2735 19.5006 21.4497 19.2834 21.4497Z" fill="#103E13"/>
<path d="M17.6279 21.4497C17.4107 21.4497 17.2341 21.2735 17.2341 21.056V20.3868C17.2341 20.1696 17.4104 19.9931 17.6279 19.9931C17.8451 19.9931 18.0216 20.1694 18.0216 20.3868V21.056C18.0214 21.2735 17.8453 21.4497 17.6279 21.4497Z" fill="#103E13"/>
<path d="M15.9726 21.4497C15.7554 21.4497 15.5789 21.2735 15.5789 21.056V20.3868C15.5789 20.1696 15.7551 19.9931 15.9726 19.9931C16.1898 19.9931 16.3664 20.1694 16.3664 20.3868V21.056C16.3664 21.2735 16.1901 21.4497 15.9726 21.4497Z" fill="#103E13"/>
<path d="M19.2834 24.1861C19.0662 24.1861 18.8896 24.0098 18.8896 23.7924V23.1235C18.8896 22.9063 19.0659 22.7297 19.2834 22.7297C19.5006 22.7297 19.6771 22.906 19.6771 23.1235V23.7924C19.6771 24.0095 19.5006 24.1861 19.2834 24.1861Z" fill="#103E13"/>
<path d="M17.6279 24.1861C17.4107 24.1861 17.2341 24.0098 17.2341 23.7924V23.1235C17.2341 22.9063 17.4104 22.7297 17.6279 22.7297C17.8451 22.7297 18.0216 22.906 18.0216 23.1235V23.7924C18.0214 24.0095 17.8453 24.1861 17.6279 24.1861Z" fill="#103E13"/>
<path d="M15.9726 24.1861C15.7554 24.1861 15.5789 24.0098 15.5789 23.7924L15.5791 23.1235C15.5791 22.9063 15.7554 22.7297 15.9729 22.7297C16.1901 22.7297 16.3666 22.906 16.3666 23.1235V23.7924C16.3664 24.0095 16.1901 24.1861 15.9726 24.1861Z" fill="#103E13"/>
<path d="M4.72445 26.9093C4.72445 27.1265 4.90073 27.303 5.1182 27.303H29.0962C29.3134 27.303 29.49 27.1268 29.49 26.9093C29.49 26.6921 29.3137 26.5155 29.0962 26.5155H28.3684V15.2105C28.3684 14.9933 28.1921 14.8167 27.9746 14.8167L21.5459 14.817V6.66664C21.5459 6.5288 21.474 6.4014 21.3564 6.33C21.2392 6.25834 21.0926 6.25395 20.9707 6.31737L13.6617 10.1228C13.5313 10.1906 13.45 10.3251 13.45 10.472V17.5912H6.3765C6.15932 17.5912 5.98276 17.7675 5.98276 17.985V26.5156H5.11732C4.90013 26.5153 4.72412 26.6916 4.72412 26.9091L4.72445 26.9093ZM21.546 20.7805H27.5813V26.5159L21.546 26.5156V20.7805ZM21.546 18.0443H27.5813V19.9933L21.546 19.993V18.0443ZM21.546 15.6041H27.5813V17.2574H21.546V15.6041ZM14.2371 10.7111L20.7583 7.31566V26.5152H14.2371V10.7111ZM8.71669 23.3707C8.71669 22.5536 9.36414 21.8885 10.1601 21.8885C10.9561 21.8885 11.6039 22.5533 11.6039 23.3707V26.5157H8.71669V23.3707ZM6.77023 18.3786H13.4499V26.5156H12.3913V23.3706C12.3913 22.1193 11.3908 21.1012 10.1601 21.1012C8.93003 21.1012 7.92949 22.119 7.92949 23.3706V26.5156H6.77023V18.3786Z" fill="#103E13"/>
</svg>
