<svg width="25" height="17" viewBox="0 0 25 17" fill="none" xmlns="http://www.w3.org/2000/svg">
<path d="M13.3106 9.42646L9.55815 15.8532L5.80572 9.42646H13.3106ZM14.3159 8.85205H4.79639L9.55815 16.9899L14.3159 8.85205Z" fill="white"/>
<path d="M19.8347 1.43305L23.5871 7.85978H16.0822L19.8347 1.43305ZM19.8347 0.284271L15.0729 8.42213H24.5964L19.8347 0.284271Z" fill="white"/>
<path d="M0.234009 0.284271L4.2266 7.48222L8.58952 0.465013L0.234009 0.284271Z" fill="white"/>
<path d="M9.55825 0.914825L13.7462 8.07261H5.36218L9.55825 0.914825Z" fill="white"/>
<path d="M14.8247 9.63531L19.0167 16.99H10.4332L14.6944 9.63531H14.8247Z" fill="white"/>
<path d="M15.7323 9.18945L19.8348 16.4316L23.9942 9.18945H15.7323Z" fill="white"/>
</svg>
